<?xml version="1.0" encoding="utf-8" ?>
<!DOCTYPE svg PUBLIC "-//W3C//DTD SVG 1.1//EN" "http://www.w3.org/Graphics/SVG/1.1/DTD/svg11.dtd">
<svg height="692" version="1.1" width="668" xmlns="http://www.w3.org/2000/svg">
<line fill="#000000" stroke="#000000" stroke-width="1" x1="165" x2="165" y1="14" y2="678"/>
<line fill="#000000" stroke="#000000" stroke-width="1" x1="14" x2="14" y1="14" y2="678"/>
<line fill="#000000" stroke="#000000" stroke-width="1" x1="14" x2="165" y1="14" y2="14"/>
<line fill="#000000" stroke="#000000" stroke-width="1" x1="14" x2="165" y1="678" y2="678"/>
<text font-family="Dialog" font-size="12" x="76" y="28">
Actor</text>
<line fill="#000000" stroke="#000000" stroke-width="1" x1="14" x2="165" y1="39" y2="39"/>
<line fill="#000000" stroke="#000000" stroke-width="1" x1="325" x2="325" y1="14" y2="678"/>
<line fill="#000000" stroke="#000000" stroke-width="1" x1="166" x2="325" y1="14" y2="14"/>
<line fill="#000000" stroke="#000000" stroke-width="1" x1="166" x2="325" y1="678" y2="678"/>
<text font-family="Dialog" font-size="12" x="219" y="28">
Controller</text>
<line fill="#000000" stroke="#000000" stroke-width="1" x1="166" x2="325" y1="39" y2="39"/>
<line fill="#000000" stroke="#000000" stroke-width="1" x1="485" x2="485" y1="14" y2="678"/>
<line fill="#000000" stroke="#000000" stroke-width="1" x1="326" x2="485" y1="14" y2="14"/>
<line fill="#000000" stroke="#000000" stroke-width="1" x1="326" x2="485" y1="678" y2="678"/>
<text font-family="Dialog" font-size="12" x="389" y="28">
Player</text>
<line fill="#000000" stroke="#000000" stroke-width="1" x1="326" x2="485" y1="39" y2="39"/>
<line fill="#000000" stroke="#000000" stroke-width="1" x1="653" x2="653" y1="14" y2="678"/>
<line fill="#000000" stroke="#000000" stroke-width="1" x1="486" x2="653" y1="14" y2="14"/>
<line fill="#000000" stroke="#000000" stroke-width="1" x1="486" x2="653" y1="678" y2="678"/>
<text font-family="Dialog" font-size="12" x="553" y="28">
Game</text>
<line fill="#000000" stroke="#000000" stroke-width="1" x1="486" x2="653" y1="39" y2="39"/>
<ellipse cx="94" cy="62" fill="#000000" rx="8.0" ry="8.0" stroke="#000000" stroke-width="1"/>
<rect fill="#00ff" height="34" rx="36" ry="36" stroke="#00ff" stroke-width="1" width="101" x="39" y="103"/>
<rect fill="#ffffff" height="36" rx="36" ry="36" stroke="#000000" stroke-width="1" width="103" x="38" y="102"/>
<rect fill="#ffffff" height="34" rx="36" ry="36" stroke="#ffffff" stroke-width="1" width="101" x="39" y="103"/>
<text font-family="Dialog" font-size="12" x="66" y="122">
take turn</text>
<rect fill="#00ff" height="34" rx="36" ry="36" stroke="#00ff" stroke-width="1" width="104" x="527" y="111"/>
<rect fill="#ffffff" height="36" rx="36" ry="36" stroke="#000000" stroke-width="1" width="106" x="526" y="110"/>
<rect fill="#ffffff" height="34" rx="36" ry="36" stroke="#ffffff" stroke-width="1" width="104" x="527" y="111"/>
<text font-family="Dialog" font-size="12" x="538" y="130">
select category</text>
<rect fill="#00ff" height="34" rx="36" ry="36" stroke="#00ff" stroke-width="1" width="101" x="199" y="223"/>
<rect fill="#ffffff" height="36" rx="36" ry="36" stroke="#000000" stroke-width="1" width="103" x="198" y="222"/>
<rect fill="#ffffff" height="34" rx="36" ry="36" stroke="#ffffff" stroke-width="1" width="101" x="199" y="223"/>
<text font-family="Dialog" font-size="12" x="222" y="242">
start timer</text>
<rect fill="#00ff" height="34" rx="36" ry="36" stroke="#00ff" stroke-width="1" width="112" x="191" y="159"/>
<rect fill="#ffffff" height="36" rx="36" ry="36" stroke="#000000" stroke-width="1" width="114" x="190" y="158"/>
<rect fill="#ffffff" height="34" rx="36" ry="36" stroke="#ffffff" stroke-width="1" width="112" x="191" y="159"/>
<text font-family="Dialog" font-size="12" x="202" y="178">
display question</text>
<rect fill="#00ff" height="34" rx="36" ry="36" stroke="#00ff" stroke-width="1" width="101" x="39" y="287"/>
<rect fill="#ffffff" height="36" rx="36" ry="36" stroke="#000000" stroke-width="1" width="103" x="38" y="286"/>
<rect fill="#ffffff" height="34" rx="36" ry="36" stroke="#ffffff" stroke-width="1" width="101" x="39" y="287"/>
<text font-family="Dialog" font-size="12" x="54" y="306">
input answer</text>
<rect fill="#00ff" height="34" rx="36" ry="36" stroke="#00ff" stroke-width="1" width="101" x="199" y="287"/>
<rect fill="#ffffff" height="36" rx="36" ry="36" stroke="#000000" stroke-width="1" width="103" x="198" y="286"/>
<rect fill="#ffffff" height="34" rx="36" ry="36" stroke="#ffffff" stroke-width="1" width="101" x="199" y="287"/>
<text font-family="Dialog" font-size="12" x="222" y="306">
stop timer</text>
<rect fill="#00ff" height="34" rx="36" ry="36" stroke="#00ff" stroke-width="1" width="105" x="199" y="351"/>
<rect fill="#ffffff" height="36" rx="36" ry="36" stroke="#000000" stroke-width="1" width="107" x="198" y="350"/>
<rect fill="#ffffff" height="34" rx="36" ry="36" stroke="#ffffff" stroke-width="1" width="105" x="199" y="351"/>
<text font-family="Dialog" font-size="12" x="210" y="370">
display answer</text>
<polygon fill="#ffffff" points="254,414 270,430 254,446 238,430" stroke="#ffffff" stroke-width="1"/>
<polygon fill="none" points="254,414 270,430 254,446 238,430" stroke="#000000" stroke-width="1"/>
<rect fill="#00ff" height="34" rx="36" ry="36" stroke="#00ff" stroke-width="1" width="111" x="351" y="407"/>
<rect fill="#ffffff" height="36" rx="36" ry="36" stroke="#000000" stroke-width="1" width="113" x="350" y="406"/>
<rect fill="#ffffff" height="34" rx="36" ry="36" stroke="#ffffff" stroke-width="1" width="111" x="351" y="407"/>
<text font-family="Dialog" font-size="12" x="362" y="426">
increment score</text>
<rect fill="#00ff" height="34" rx="36" ry="36" stroke="#00ff" stroke-width="1" width="115" x="351" y="487"/>
<rect fill="#ffffff" height="36" rx="36" ry="36" stroke="#000000" stroke-width="1" width="117" x="350" y="486"/>
<rect fill="#ffffff" height="34" rx="36" ry="36" stroke="#ffffff" stroke-width="1" width="115" x="351" y="487"/>
<text font-family="Dialog" font-size="12" x="362" y="506">
decrement score</text>
<rect fill="#00ff" height="50" rx="52" ry="52" stroke="#00ff" stroke-width="1" width="120" x="191" y="527"/>
<rect fill="#ffffff" height="52" rx="52" ry="52" stroke="#000000" stroke-width="1" width="122" x="190" y="526"/>
<rect fill="#ffffff" height="50" rx="52" ry="52" stroke="#ffffff" stroke-width="1" width="120" x="191" y="527"/>
<text font-family="Dialog" font-size="12" x="220" y="546">
decrement </text>
<text font-family="Dialog" font-size="12" x="202" y="562">
rounds remaining</text>
<rect fill="#00ff" height="34" rx="36" ry="36" stroke="#00ff" stroke-width="1" width="102" x="199" y="615"/>
<rect fill="#ffffff" height="36" rx="36" ry="36" stroke="#000000" stroke-width="1" width="104" x="198" y="614"/>
<rect fill="#ffffff" height="34" rx="36" ry="36" stroke="#ffffff" stroke-width="1" width="102" x="199" y="615"/>
<text font-family="Dialog" font-size="12" x="210" y="634">
update display</text>
<polygon fill="#ffffff" points="582,454 598,470 582,486 566,470" stroke="#ffffff" stroke-width="1"/>
<polygon fill="none" points="582,454 598,470 582,486 566,470" stroke="#000000" stroke-width="1"/>
<polyline fill="none" points="94,70 94,103" stroke="#333399" stroke-width="1"/>
<line fill="#333399" stroke="#333399" stroke-width="1" x1="87" x2="94" y1="91" y2="103"/>
<line fill="#333399" stroke="#333399" stroke-width="1" x1="101" x2="94" y1="91" y2="103"/>
<polyline fill="none" points="139,120 527,120" stroke="#333399" stroke-width="1"/>
<line fill="#333399" stroke="#333399" stroke-width="1" x1="515" x2="527" y1="127" y2="120"/>
<line fill="#333399" stroke="#333399" stroke-width="1" x1="515" x2="527" y1="113" y2="120"/>
<polyline fill="none" points="527,144 302,159" stroke="#333399" stroke-width="1"/>
<line fill="#333399" stroke="#333399" stroke-width="1" x1="313" x2="302" y1="151" y2="159"/>
<line fill="#333399" stroke="#333399" stroke-width="1" x1="314" x2="302" y1="165" y2="159"/>
<polyline fill="none" points="247,192 247,223" stroke="#333399" stroke-width="1"/>
<line fill="#333399" stroke="#333399" stroke-width="1" x1="240" x2="247" y1="211" y2="223"/>
<line fill="#333399" stroke="#333399" stroke-width="1" x1="254" x2="247" y1="211" y2="223"/>
<polyline fill="none" points="199,256 139,287" stroke="#333399" stroke-width="1"/>
<line fill="#333399" stroke="#333399" stroke-width="1" x1="146" x2="139" y1="275" y2="287"/>
<line fill="#333399" stroke="#333399" stroke-width="1" x1="152" x2="139" y1="287" y2="287"/>
<polyline fill="none" points="139,304 199,304" stroke="#333399" stroke-width="1"/>
<line fill="#333399" stroke="#333399" stroke-width="1" x1="187" x2="199" y1="311" y2="304"/>
<line fill="#333399" stroke="#333399" stroke-width="1" x1="187" x2="199" y1="297" y2="304"/>
<polyline fill="none" points="249,320 249,351" stroke="#333399" stroke-width="1"/>
<line fill="#333399" stroke="#333399" stroke-width="1" x1="242" x2="249" y1="339" y2="351"/>
<line fill="#333399" stroke="#333399" stroke-width="1" x1="256" x2="249" y1="339" y2="351"/>
<polyline fill="none" points="254,384 254,414" stroke="#333399" stroke-width="1"/>
<line fill="#333399" stroke="#333399" stroke-width="1" x1="247" x2="254" y1="402" y2="414"/>
<line fill="#333399" stroke="#333399" stroke-width="1" x1="261" x2="254" y1="402" y2="414"/>
<polyline fill="none" points="270,430 351,430" stroke="#333399" stroke-width="1"/>
<line fill="#333399" stroke="#333399" stroke-width="1" x1="339" x2="351" y1="437" y2="430"/>
<line fill="#333399" stroke="#333399" stroke-width="1" x1="339" x2="351" y1="423" y2="430"/>
<text font-family="Dialog" font-size="12" x="292" y="425">
correct</text>
<polyline fill="none" points="254,446 270,502 351,502" stroke="#333399" stroke-width="1"/>
<line fill="#333399" stroke="#333399" stroke-width="1" x1="339" x2="351" y1="509" y2="502"/>
<line fill="#333399" stroke="#333399" stroke-width="1" x1="339" x2="351" y1="495" y2="502"/>
<text font-family="Dialog" font-size="12" x="266" y="477">
incorrect</text>
<polyline fill="none" points="461,440 566,470" stroke="#333399" stroke-width="1"/>
<line fill="#333399" stroke="#333399" stroke-width="1" x1="552" x2="566" y1="473" y2="470"/>
<line fill="#333399" stroke="#333399" stroke-width="1" x1="556" x2="566" y1="459" y2="470"/>
<polyline fill="none" points="465,487 566,470" stroke="#333399" stroke-width="1"/>
<line fill="#333399" stroke="#333399" stroke-width="1" x1="555" x2="566" y1="478" y2="470"/>
<line fill="#333399" stroke="#333399" stroke-width="1" x1="553" x2="566" y1="465" y2="470"/>
<polyline fill="none" points="582,486 582,550 310,550" stroke="#333399" stroke-width="1"/>
<line fill="#333399" stroke="#333399" stroke-width="1" x1="322" x2="310" y1="543" y2="550"/>
<line fill="#333399" stroke="#333399" stroke-width="1" x1="322" x2="310" y1="557" y2="550"/>
<polyline fill="none" points="251,576 251,615" stroke="#333399" stroke-width="1"/>
<line fill="#333399" stroke="#333399" stroke-width="1" x1="244" x2="251" y1="603" y2="615"/>
<line fill="#333399" stroke="#333399" stroke-width="1" x1="258" x2="251" y1="603" y2="615"/>
<ellipse cx="90" cy="634" fill="#000000" rx="12.0" ry="12.0" stroke="#000000" stroke-width="1"/>
<ellipse cx="90" cy="634" fill="#ffffff" rx="11.0" ry="11.0" stroke="#ffffff" stroke-width="1"/>
<ellipse cx="89" cy="633" fill="#000000" rx="7.5" ry="7.5" stroke="#000000" stroke-width="1"/>
<polyline fill="none" points="199,633 101,633" stroke="#333399" stroke-width="1"/>
<line fill="#333399" stroke="#333399" stroke-width="1" x1="113" x2="101" y1="626" y2="633"/>
<line fill="#333399" stroke="#333399" stroke-width="1" x1="113" x2="101" y1="640" y2="633"/>
</svg>
