<?xml version="1.0" encoding="utf-8" ?>
<!DOCTYPE svg PUBLIC "-//W3C//DTD SVG 1.1//EN" "http://www.w3.org/Graphics/SVG/1.1/DTD/svg11.dtd">
<svg height="388" version="1.1" width="668" xmlns="http://www.w3.org/2000/svg">
<line fill="#000000" stroke="#000000" stroke-width="1" x1="173" x2="173" y1="14" y2="374"/>
<line fill="#000000" stroke="#000000" stroke-width="1" x1="14" x2="14" y1="14" y2="374"/>
<line fill="#000000" stroke="#000000" stroke-width="1" x1="14" x2="173" y1="14" y2="14"/>
<line fill="#000000" stroke="#000000" stroke-width="1" x1="14" x2="173" y1="374" y2="374"/>
<text font-family="Dialog" font-size="12" x="80" y="28">
Actor</text>
<line fill="#000000" stroke="#000000" stroke-width="1" x1="14" x2="173" y1="39" y2="39"/>
<line fill="#000000" stroke="#000000" stroke-width="1" x1="333" x2="333" y1="14" y2="374"/>
<line fill="#000000" stroke="#000000" stroke-width="1" x1="174" x2="333" y1="14" y2="14"/>
<line fill="#000000" stroke="#000000" stroke-width="1" x1="174" x2="333" y1="374" y2="374"/>
<text font-family="Dialog" font-size="12" x="227" y="28">
Controller</text>
<line fill="#000000" stroke="#000000" stroke-width="1" x1="174" x2="333" y1="39" y2="39"/>
<line fill="#000000" stroke="#000000" stroke-width="1" x1="493" x2="493" y1="14" y2="374"/>
<line fill="#000000" stroke="#000000" stroke-width="1" x1="334" x2="493" y1="14" y2="14"/>
<line fill="#000000" stroke="#000000" stroke-width="1" x1="334" x2="493" y1="374" y2="374"/>
<text font-family="Dialog" font-size="12" x="397" y="28">
Player</text>
<line fill="#000000" stroke="#000000" stroke-width="1" x1="334" x2="493" y1="39" y2="39"/>
<line fill="#000000" stroke="#000000" stroke-width="1" x1="653" x2="653" y1="14" y2="374"/>
<line fill="#000000" stroke="#000000" stroke-width="1" x1="494" x2="653" y1="14" y2="14"/>
<line fill="#000000" stroke="#000000" stroke-width="1" x1="494" x2="653" y1="374" y2="374"/>
<text font-family="Dialog" font-size="12" x="557" y="28">
Game</text>
<line fill="#000000" stroke="#000000" stroke-width="1" x1="494" x2="653" y1="39" y2="39"/>
<ellipse cx="94" cy="62" fill="#000000" rx="8.0" ry="8.0" stroke="#000000" stroke-width="1"/>
<rect fill="#00ff" height="34" rx="36" ry="36" stroke="#00ff" stroke-width="1" width="101" x="47" y="95"/>
<rect fill="#ffffff" height="36" rx="36" ry="36" stroke="#000000" stroke-width="1" width="103" x="46" y="94"/>
<rect fill="#ffffff" height="34" rx="36" ry="36" stroke="#ffffff" stroke-width="1" width="101" x="47" y="95"/>
<text font-family="Dialog" font-size="12" x="74" y="114">
take turn</text>
<rect fill="#00ff" height="34" rx="36" ry="36" stroke="#00ff" stroke-width="1" width="101" x="527" y="95"/>
<rect fill="#ffffff" height="36" rx="36" ry="36" stroke="#000000" stroke-width="1" width="103" x="526" y="94"/>
<rect fill="#ffffff" height="34" rx="36" ry="36" stroke="#ffffff" stroke-width="1" width="101" x="527" y="95"/>
<text font-family="Dialog" font-size="12" x="555" y="114">
free turn</text>
<rect fill="#00ff" height="34" rx="36" ry="36" stroke="#00ff" stroke-width="1" width="102" x="207" y="207"/>
<rect fill="#ffffff" height="36" rx="36" ry="36" stroke="#000000" stroke-width="1" width="104" x="206" y="206"/>
<rect fill="#ffffff" height="34" rx="36" ry="36" stroke="#ffffff" stroke-width="1" width="102" x="207" y="207"/>
<text font-family="Dialog" font-size="12" x="218" y="226">
update display</text>
<rect fill="#00ff" height="50" rx="52" ry="52" stroke="#00ff" stroke-width="1" width="110" x="367" y="143"/>
<rect fill="#ffffff" height="52" rx="52" ry="52" stroke="#000000" stroke-width="1" width="112" x="366" y="142"/>
<rect fill="#ffffff" height="50" rx="52" ry="52" stroke="#ffffff" stroke-width="1" width="110" x="367" y="143"/>
<text font-family="Dialog" font-size="12" x="378" y="162">
increment token</text>
<text font-family="Dialog" font-size="12" x="407" y="178">
count</text>
<rect fill="#00ff" height="34" rx="36" ry="36" stroke="#00ff" stroke-width="1" width="101" x="207" y="287"/>
<rect fill="#ffffff" height="36" rx="36" ry="36" stroke="#000000" stroke-width="1" width="103" x="206" y="286"/>
<rect fill="#ffffff" height="34" rx="36" ry="36" stroke="#ffffff" stroke-width="1" width="101" x="207" y="287"/>
<text font-family="Dialog" font-size="12" x="228" y="306">
switch turn</text>
<ellipse cx="98" cy="306" fill="#000000" rx="12.0" ry="12.0" stroke="#000000" stroke-width="1"/>
<ellipse cx="98" cy="306" fill="#ffffff" rx="11.0" ry="11.0" stroke="#ffffff" stroke-width="1"/>
<ellipse cx="97" cy="305" fill="#000000" rx="7.5" ry="7.5" stroke="#000000" stroke-width="1"/>
<polyline fill="none" points="94,70 94,95" stroke="#333399" stroke-width="1"/>
<line fill="#333399" stroke="#333399" stroke-width="1" x1="87" x2="94" y1="83" y2="95"/>
<line fill="#333399" stroke="#333399" stroke-width="1" x1="101" x2="94" y1="83" y2="95"/>
<polyline fill="none" points="147,112 527,112" stroke="#333399" stroke-width="1"/>
<line fill="#333399" stroke="#333399" stroke-width="1" x1="515" x2="527" y1="119" y2="112"/>
<line fill="#333399" stroke="#333399" stroke-width="1" x1="515" x2="527" y1="105" y2="112"/>
<polyline fill="none" points="527,128 476,143" stroke="#333399" stroke-width="1"/>
<line fill="#333399" stroke="#333399" stroke-width="1" x1="485" x2="476" y1="132" y2="143"/>
<line fill="#333399" stroke="#333399" stroke-width="1" x1="489" x2="476" y1="146" y2="143"/>
<polyline fill="none" points="367,192 308,207" stroke="#333399" stroke-width="1"/>
<line fill="#333399" stroke="#333399" stroke-width="1" x1="317" x2="308" y1="197" y2="207"/>
<line fill="#333399" stroke="#333399" stroke-width="1" x1="321" x2="308" y1="210" y2="207"/>
<polyline fill="none" points="258,240 258,287" stroke="#333399" stroke-width="1"/>
<line fill="#333399" stroke="#333399" stroke-width="1" x1="251" x2="258" y1="275" y2="287"/>
<line fill="#333399" stroke="#333399" stroke-width="1" x1="265" x2="258" y1="275" y2="287"/>
<polyline fill="none" points="207,306 110,306" stroke="#333399" stroke-width="1"/>
<line fill="#333399" stroke="#333399" stroke-width="1" x1="122" x2="110" y1="299" y2="306"/>
<line fill="#333399" stroke="#333399" stroke-width="1" x1="122" x2="110" y1="313" y2="306"/>
</svg>
