<?xml version="1.0" encoding="utf-8" ?>
<!DOCTYPE svg PUBLIC "-//W3C//DTD SVG 1.1//EN" "http://www.w3.org/Graphics/SVG/1.1/DTD/svg11.dtd">
<svg height="468" version="1.1" width="676" xmlns="http://www.w3.org/2000/svg">
<line fill="#000000" stroke="#000000" stroke-width="1" x1="173" x2="173" y1="14" y2="454"/>
<line fill="#000000" stroke="#000000" stroke-width="1" x1="14" x2="14" y1="14" y2="454"/>
<line fill="#000000" stroke="#000000" stroke-width="1" x1="14" x2="173" y1="14" y2="14"/>
<line fill="#000000" stroke="#000000" stroke-width="1" x1="14" x2="173" y1="454" y2="454"/>
<text font-family="Dialog" font-size="12" x="80" y="28">
Actor</text>
<line fill="#000000" stroke="#000000" stroke-width="1" x1="14" x2="173" y1="39" y2="39"/>
<line fill="#000000" stroke="#000000" stroke-width="1" x1="333" x2="333" y1="14" y2="454"/>
<line fill="#000000" stroke="#000000" stroke-width="1" x1="174" x2="333" y1="14" y2="14"/>
<line fill="#000000" stroke="#000000" stroke-width="1" x1="174" x2="333" y1="454" y2="454"/>
<text font-family="Dialog" font-size="12" x="227" y="28">
Controller</text>
<line fill="#000000" stroke="#000000" stroke-width="1" x1="174" x2="333" y1="39" y2="39"/>
<line fill="#000000" stroke="#000000" stroke-width="1" x1="493" x2="493" y1="14" y2="454"/>
<line fill="#000000" stroke="#000000" stroke-width="1" x1="334" x2="493" y1="14" y2="14"/>
<line fill="#000000" stroke="#000000" stroke-width="1" x1="334" x2="493" y1="454" y2="454"/>
<text font-family="Dialog" font-size="12" x="397" y="28">
Player</text>
<line fill="#000000" stroke="#000000" stroke-width="1" x1="334" x2="493" y1="39" y2="39"/>
<line fill="#000000" stroke="#000000" stroke-width="1" x1="661" x2="661" y1="14" y2="454"/>
<line fill="#000000" stroke="#000000" stroke-width="1" x1="494" x2="661" y1="14" y2="14"/>
<line fill="#000000" stroke="#000000" stroke-width="1" x1="494" x2="661" y1="454" y2="454"/>
<text font-family="Dialog" font-size="12" x="561" y="28">
Game</text>
<line fill="#000000" stroke="#000000" stroke-width="1" x1="494" x2="661" y1="39" y2="39"/>
<ellipse cx="94" cy="70" fill="#000000" rx="8.0" ry="8.0" stroke="#000000" stroke-width="1"/>
<rect fill="#00ff" height="34" rx="36" ry="36" stroke="#00ff" stroke-width="1" width="113" x="39" y="103"/>
<rect fill="#ffffff" height="36" rx="36" ry="36" stroke="#000000" stroke-width="1" width="115" x="38" y="102"/>
<rect fill="#ffffff" height="34" rx="36" ry="36" stroke="#ffffff" stroke-width="1" width="113" x="39" y="103"/>
<text font-family="Dialog" font-size="12" x="50" y="122">
open application</text>
<polyline fill="none" points="94,78 94,103" stroke="#333399" stroke-width="1"/>
<line fill="#333399" stroke="#333399" stroke-width="1" x1="87" x2="94" y1="91" y2="103"/>
<line fill="#333399" stroke="#333399" stroke-width="1" x1="101" x2="94" y1="91" y2="103"/>
<rect fill="#00ff" height="34" rx="36" ry="36" stroke="#00ff" stroke-width="1" width="109" x="39" y="167"/>
<rect fill="#ffffff" height="36" rx="36" ry="36" stroke="#000000" stroke-width="1" width="111" x="38" y="166"/>
<rect fill="#ffffff" height="34" rx="36" ry="36" stroke="#ffffff" stroke-width="1" width="109" x="39" y="167"/>
<text font-family="Dialog" font-size="12" x="50" y="186">
specify input file</text>
<rect fill="#00ff" height="34" rx="36" ry="36" stroke="#00ff" stroke-width="1" width="116" x="351" y="327"/>
<rect fill="#ffffff" height="36" rx="36" ry="36" stroke="#000000" stroke-width="1" width="118" x="350" y="326"/>
<rect fill="#ffffff" height="34" rx="36" ry="36" stroke="#ffffff" stroke-width="1" width="116" x="351" y="327"/>
<text font-family="Dialog" font-size="12" x="362" y="346">
players initialized</text>
<rect fill="#00ff" height="34" rx="36" ry="36" stroke="#00ff" stroke-width="1" width="106" x="199" y="167"/>
<rect fill="#ffffff" height="36" rx="36" ry="36" stroke="#000000" stroke-width="1" width="108" x="198" y="166"/>
<rect fill="#ffffff" height="34" rx="36" ry="36" stroke="#ffffff" stroke-width="1" width="106" x="199" y="167"/>
<text font-family="Dialog" font-size="12" x="210" y="186">
verify input data</text>
<rect fill="#00ff" height="50" rx="52" ry="52" stroke="#00ff" stroke-width="1" width="139" x="511" y="247"/>
<rect fill="#ffffff" height="52" rx="52" ry="52" stroke="#000000" stroke-width="1" width="141" x="510" y="246"/>
<rect fill="#ffffff" height="50" rx="52" ry="52" stroke="#ffffff" stroke-width="1" width="139" x="511" y="247"/>
<text font-family="Dialog" font-size="12" x="528" y="266">
load input data into</text>
<text font-family="Dialog" font-size="12" x="534" y="282">
wheel and board</text>
<rect fill="#00ff" height="50" rx="52" ry="52" stroke="#00ff" stroke-width="1" width="142" x="511" y="159"/>
<rect fill="#ffffff" height="52" rx="52" ry="52" stroke="#000000" stroke-width="1" width="144" x="510" y="158"/>
<rect fill="#ffffff" height="50" rx="52" ry="52" stroke="#ffffff" stroke-width="1" width="142" x="511" y="159"/>
<text font-family="Dialog" font-size="12" x="545" y="178">
create Game </text>
<text font-family="Dialog" font-size="12" x="558" y="194">
instance</text>
<rect fill="#00ff" height="34" rx="36" ry="36" stroke="#00ff" stroke-width="1" width="127" x="191" y="391"/>
<rect fill="#ffffff" height="36" rx="36" ry="36" stroke="#000000" stroke-width="1" width="129" x="190" y="390"/>
<rect fill="#ffffff" height="34" rx="36" ry="36" stroke="#ffffff" stroke-width="1" width="127" x="191" y="391"/>
<text font-family="Dialog" font-size="12" x="202" y="410">
make initial display</text>
<polyline fill="none" points="95,136 95,167" stroke="#333399" stroke-width="1"/>
<line fill="#333399" stroke="#333399" stroke-width="1" x1="88" x2="95" y1="155" y2="167"/>
<line fill="#333399" stroke="#333399" stroke-width="1" x1="102" x2="95" y1="155" y2="167"/>
<polyline fill="none" points="147,184 199,184" stroke="#333399" stroke-width="1"/>
<line fill="#333399" stroke="#333399" stroke-width="1" x1="187" x2="199" y1="191" y2="184"/>
<line fill="#333399" stroke="#333399" stroke-width="1" x1="187" x2="199" y1="177" y2="184"/>
<polyline fill="none" points="304,184 511,184" stroke="#333399" stroke-width="1"/>
<line fill="#333399" stroke="#333399" stroke-width="1" x1="499" x2="511" y1="191" y2="184"/>
<line fill="#333399" stroke="#333399" stroke-width="1" x1="499" x2="511" y1="177" y2="184"/>
<polyline fill="none" points="582,208 582,247" stroke="#333399" stroke-width="1"/>
<line fill="#333399" stroke="#333399" stroke-width="1" x1="575" x2="582" y1="235" y2="247"/>
<line fill="#333399" stroke="#333399" stroke-width="1" x1="589" x2="582" y1="235" y2="247"/>
<polyline fill="none" points="511,296 466,327" stroke="#333399" stroke-width="1"/>
<line fill="#333399" stroke="#333399" stroke-width="1" x1="471" x2="466" y1="314" y2="327"/>
<line fill="#333399" stroke="#333399" stroke-width="1" x1="479" x2="466" y1="325" y2="327"/>
<polyline fill="none" points="351,360 317,391" stroke="#333399" stroke-width="1"/>
<line fill="#333399" stroke="#333399" stroke-width="1" x1="321" x2="317" y1="377" y2="391"/>
<line fill="#333399" stroke="#333399" stroke-width="1" x1="330" x2="317" y1="388" y2="391"/>
<ellipse cx="98" cy="410" fill="#000000" rx="12.0" ry="12.0" stroke="#000000" stroke-width="1"/>
<ellipse cx="98" cy="410" fill="#ffffff" rx="11.0" ry="11.0" stroke="#ffffff" stroke-width="1"/>
<ellipse cx="97" cy="409" fill="#000000" rx="7.5" ry="7.5" stroke="#000000" stroke-width="1"/>
<polyline fill="none" points="191,409 109,409" stroke="#333399" stroke-width="1"/>
<line fill="#333399" stroke="#333399" stroke-width="1" x1="121" x2="109" y1="402" y2="409"/>
<line fill="#333399" stroke="#333399" stroke-width="1" x1="121" x2="109" y1="416" y2="409"/>
</svg>
