<?xml version="1.0" encoding="utf-8" ?>
<!DOCTYPE svg PUBLIC "-//W3C//DTD SVG 1.1//EN" "http://www.w3.org/Graphics/SVG/1.1/DTD/svg11.dtd">
<svg height="764" version="1.1" width="724" xmlns="http://www.w3.org/2000/svg">
<line fill="#000000" stroke="#000000" stroke-width="1" x1="125" x2="125" y1="14" y2="750"/>
<line fill="#000000" stroke="#000000" stroke-width="1" x1="14" x2="14" y1="14" y2="750"/>
<line fill="#000000" stroke="#000000" stroke-width="1" x1="14" x2="125" y1="14" y2="14"/>
<line fill="#000000" stroke="#000000" stroke-width="1" x1="14" x2="125" y1="750" y2="750"/>
<text font-family="Dialog" font-size="12" x="56" y="28">
Actor</text>
<line fill="#000000" stroke="#000000" stroke-width="1" x1="14" x2="125" y1="39" y2="39"/>
<line fill="#000000" stroke="#000000" stroke-width="1" x1="453" x2="453" y1="14" y2="750"/>
<line fill="#000000" stroke="#000000" stroke-width="1" x1="126" x2="453" y1="14" y2="14"/>
<line fill="#000000" stroke="#000000" stroke-width="1" x1="126" x2="453" y1="750" y2="750"/>
<text font-family="Dialog" font-size="12" x="263" y="28">
Controller</text>
<line fill="#000000" stroke="#000000" stroke-width="1" x1="126" x2="453" y1="39" y2="39"/>
<line fill="#000000" stroke="#000000" stroke-width="1" x1="573" x2="573" y1="14" y2="750"/>
<line fill="#000000" stroke="#000000" stroke-width="1" x1="454" x2="573" y1="14" y2="14"/>
<line fill="#000000" stroke="#000000" stroke-width="1" x1="454" x2="573" y1="750" y2="750"/>
<text font-family="Dialog" font-size="12" x="497" y="28">
Player</text>
<line fill="#000000" stroke="#000000" stroke-width="1" x1="454" x2="573" y1="39" y2="39"/>
<line fill="#000000" stroke="#000000" stroke-width="1" x1="709" x2="709" y1="14" y2="750"/>
<line fill="#000000" stroke="#000000" stroke-width="1" x1="574" x2="709" y1="14" y2="14"/>
<line fill="#000000" stroke="#000000" stroke-width="1" x1="574" x2="709" y1="750" y2="750"/>
<text font-family="Dialog" font-size="12" x="625" y="28">
Game</text>
<line fill="#000000" stroke="#000000" stroke-width="1" x1="574" x2="709" y1="39" y2="39"/>
<ellipse cx="286" cy="62" fill="#000000" rx="8.0" ry="8.0" stroke="#000000" stroke-width="1"/>
<rect fill="#00ff" height="34" rx="36" ry="36" stroke="#00ff" stroke-width="1" width="112" x="239" y="255"/>
<rect fill="#ffffff" height="36" rx="36" ry="36" stroke="#000000" stroke-width="1" width="114" x="238" y="254"/>
<rect fill="#ffffff" height="34" rx="36" ry="36" stroke="#ffffff" stroke-width="1" width="112" x="239" y="255"/>
<text font-family="Dialog" font-size="12" x="250" y="274">
increment round</text>
<polygon fill="#ffffff" points="286,94 302,110 286,126 270,110" stroke="#ffffff" stroke-width="1"/>
<polygon fill="none" points="286,94 302,110 286,126 270,110" stroke="#000000" stroke-width="1"/>
<polyline fill="none" points="286,70 286,94" stroke="#333399" stroke-width="1"/>
<line fill="#333399" stroke="#333399" stroke-width="1" x1="279" x2="286" y1="82" y2="94"/>
<line fill="#333399" stroke="#333399" stroke-width="1" x1="293" x2="286" y1="82" y2="94"/>
<polygon fill="#ffffff" points="286,190 302,206 286,222 270,206" stroke="#ffffff" stroke-width="1"/>
<polygon fill="none" points="286,190 302,206 286,222 270,206" stroke="#000000" stroke-width="1"/>
<polyline fill="none" points="270,110 230,158 270,206" stroke="#333399" stroke-width="1"/>
<line fill="#333399" stroke="#333399" stroke-width="1" x1="256" x2="270" y1="201" y2="206"/>
<line fill="#333399" stroke="#333399" stroke-width="1" x1="267" x2="270" y1="192" y2="206"/>
<text font-family="Dialog" font-size="12" x="139" y="162">
out of questions</text>
<polyline fill="none" points="302,110 342,158 302,206" stroke="#333399" stroke-width="1"/>
<line fill="#333399" stroke="#333399" stroke-width="1" x1="304" x2="302" y1="192" y2="206"/>
<line fill="#333399" stroke="#333399" stroke-width="1" x1="315" x2="302" y1="201" y2="206"/>
<text font-family="Dialog" font-size="12" x="336" y="162">
max turns exceeded</text>
<rect fill="#00ff" height="34" rx="36" ry="36" stroke="#00ff" stroke-width="1" width="125" x="231" y="319"/>
<rect fill="#ffffff" height="36" rx="36" ry="36" stroke="#000000" stroke-width="1" width="127" x="230" y="318"/>
<rect fill="#ffffff" height="34" rx="36" ry="36" stroke="#ffffff" stroke-width="1" width="125" x="231" y="319"/>
<text font-family="Dialog" font-size="12" x="242" y="338">
restart turn counter</text>
<polygon fill="#ffffff" points="294,382 310,398 294,414 278,398" stroke="#ffffff" stroke-width="1"/>
<polygon fill="none" points="294,382 310,398 294,414 278,398" stroke="#000000" stroke-width="1"/>
<rect fill="#00ff" height="50" rx="52" ry="52" stroke="#00ff" stroke-width="1" width="101" x="591" y="375"/>
<rect fill="#ffffff" height="52" rx="52" ry="52" stroke="#000000" stroke-width="1" width="103" x="590" y="374"/>
<rect fill="#ffffff" height="50" rx="52" ry="52" stroke="#ffffff" stroke-width="1" width="101" x="591" y="375"/>
<text font-family="Dialog" font-size="12" x="615" y="394">
load new </text>
<text font-family="Dialog" font-size="12" x="614" y="410">
questions</text>
<rect fill="#00ff" height="50" rx="52" ry="52" stroke="#00ff" stroke-width="1" width="101" x="463" y="479"/>
<rect fill="#ffffff" height="52" rx="52" ry="52" stroke="#000000" stroke-width="1" width="103" x="462" y="478"/>
<rect fill="#ffffff" height="50" rx="52" ry="52" stroke="#ffffff" stroke-width="1" width="101" x="463" y="479"/>
<text font-family="Dialog" font-size="12" x="480" y="498">
store round </text>
<text font-family="Dialog" font-size="12" x="498" y="514">
score</text>
<rect fill="#00ff" height="34" rx="36" ry="36" stroke="#00ff" stroke-width="1" width="115" x="247" y="567"/>
<rect fill="#ffffff" height="36" rx="36" ry="36" stroke="#000000" stroke-width="1" width="117" x="246" y="566"/>
<rect fill="#ffffff" height="34" rx="36" ry="36" stroke="#ffffff" stroke-width="1" width="115" x="247" y="567"/>
<text font-family="Dialog" font-size="12" x="258" y="586">
 compare scores</text>
<ellipse cx="67" cy="503" fill="#000000" rx="12.0" ry="12.0" stroke="#000000" stroke-width="1"/>
<ellipse cx="67" cy="503" fill="#ffffff" rx="11.0" ry="11.0" stroke="#ffffff" stroke-width="1"/>
<ellipse cx="66" cy="502" fill="#000000" rx="7.5" ry="7.5" stroke="#000000" stroke-width="1"/>
<polyline fill="none" points="286,222 286,255" stroke="#333399" stroke-width="1"/>
<line fill="#333399" stroke="#333399" stroke-width="1" x1="279" x2="286" y1="243" y2="255"/>
<line fill="#333399" stroke="#333399" stroke-width="1" x1="293" x2="286" y1="243" y2="255"/>
<polyline fill="none" points="295,288 295,319" stroke="#333399" stroke-width="1"/>
<line fill="#333399" stroke="#333399" stroke-width="1" x1="288" x2="295" y1="307" y2="319"/>
<line fill="#333399" stroke="#333399" stroke-width="1" x1="302" x2="295" y1="307" y2="319"/>
<polyline fill="none" points="294,352 294,382" stroke="#333399" stroke-width="1"/>
<line fill="#333399" stroke="#333399" stroke-width="1" x1="287" x2="294" y1="370" y2="382"/>
<line fill="#333399" stroke="#333399" stroke-width="1" x1="301" x2="294" y1="370" y2="382"/>
<polyline fill="none" points="310,398 591,398" stroke="#333399" stroke-width="1"/>
<line fill="#333399" stroke="#333399" stroke-width="1" x1="579" x2="591" y1="405" y2="398"/>
<line fill="#333399" stroke="#333399" stroke-width="1" x1="579" x2="591" y1="391" y2="398"/>
<text font-family="Dialog" font-size="12" x="424" y="393">
round = 2</text>
<polyline fill="none" points="591,424 563,479" stroke="#333399" stroke-width="1"/>
<line fill="#333399" stroke="#333399" stroke-width="1" x1="562" x2="563" y1="465" y2="479"/>
<line fill="#333399" stroke="#333399" stroke-width="1" x1="574" x2="563" y1="471" y2="479"/>
<polyline fill="none" points="278,398 214,446 247,567" stroke="#333399" stroke-width="1"/>
<line fill="#333399" stroke="#333399" stroke-width="1" x1="237" x2="247" y1="557" y2="567"/>
<line fill="#333399" stroke="#333399" stroke-width="1" x1="250" x2="247" y1="553" y2="567"/>
<text font-family="Dialog" font-size="12" x="208" y="459">
round &gt; 2 ; game over</text>
<rect fill="#00ff" height="34" rx="36" ry="36" stroke="#00ff" stroke-width="1" width="103" x="255" y="631"/>
<rect fill="#ffffff" height="36" rx="36" ry="36" stroke="#000000" stroke-width="1" width="105" x="254" y="630"/>
<rect fill="#ffffff" height="34" rx="36" ry="36" stroke="#ffffff" stroke-width="1" width="103" x="255" y="631"/>
<text font-family="Dialog" font-size="12" x="266" y="650">
declare winner</text>
<rect fill="#00ff" height="34" rx="36" ry="36" stroke="#00ff" stroke-width="1" width="101" x="255" y="695"/>
<rect fill="#ffffff" height="36" rx="36" ry="36" stroke="#000000" stroke-width="1" width="103" x="254" y="694"/>
<rect fill="#ffffff" height="34" rx="36" ry="36" stroke="#ffffff" stroke-width="1" width="101" x="255" y="695"/>
<text font-family="Dialog" font-size="12" x="266" y="714">
display winner</text>
<polyline fill="none" points="304,600 304,631" stroke="#333399" stroke-width="1"/>
<line fill="#333399" stroke="#333399" stroke-width="1" x1="297" x2="304" y1="619" y2="631"/>
<line fill="#333399" stroke="#333399" stroke-width="1" x1="311" x2="304" y1="619" y2="631"/>
<polyline fill="none" points="302,664 302,695" stroke="#333399" stroke-width="1"/>
<line fill="#333399" stroke="#333399" stroke-width="1" x1="295" x2="302" y1="683" y2="695"/>
<line fill="#333399" stroke="#333399" stroke-width="1" x1="309" x2="302" y1="683" y2="695"/>
<polygon fill="#ffffff" points="166,486 182,502 166,518 150,502" stroke="#ffffff" stroke-width="1"/>
<polygon fill="none" points="166,486 182,502 166,518 150,502" stroke="#000000" stroke-width="1"/>
<rect fill="#00ff" height="34" rx="36" ry="36" stroke="#00ff" stroke-width="1" width="122" x="247" y="487"/>
<rect fill="#ffffff" height="36" rx="36" ry="36" stroke="#000000" stroke-width="1" width="124" x="246" y="486"/>
<rect fill="#ffffff" height="34" rx="36" ry="36" stroke="#ffffff" stroke-width="1" width="122" x="247" y="487"/>
<text font-family="Dialog" font-size="12" x="258" y="506">
display new board</text>
<polyline fill="none" points="463,502 368,502" stroke="#333399" stroke-width="1"/>
<line fill="#333399" stroke="#333399" stroke-width="1" x1="380" x2="368" y1="495" y2="502"/>
<line fill="#333399" stroke="#333399" stroke-width="1" x1="380" x2="368" y1="509" y2="502"/>
<polyline fill="none" points="247,502 182,502" stroke="#333399" stroke-width="1"/>
<line fill="#333399" stroke="#333399" stroke-width="1" x1="194" x2="182" y1="495" y2="502"/>
<line fill="#333399" stroke="#333399" stroke-width="1" x1="194" x2="182" y1="509" y2="502"/>
<polyline fill="none" points="150,502 78,502" stroke="#333399" stroke-width="1"/>
<line fill="#333399" stroke="#333399" stroke-width="1" x1="90" x2="78" y1="495" y2="502"/>
<line fill="#333399" stroke="#333399" stroke-width="1" x1="90" x2="78" y1="509" y2="502"/>
<polyline fill="none" points="255,695 166,518" stroke="#333399" stroke-width="1"/>
<line fill="#333399" stroke="#333399" stroke-width="1" x1="177" x2="166" y1="525" y2="518"/>
<line fill="#333399" stroke="#333399" stroke-width="1" x1="165" x2="166" y1="531" y2="518"/>
</svg>
